<svg id="visual" viewBox="0 0 289.14 408" width="289.14" height="408" xmlns="http://www.w3.org/2000/svg" xmlns:xlink="http://www.w3.org/1999/xlink" version="1.1"><path d="M271 408L268 401.8C265 395.7 259 383.3 255.7 371C252.3 358.7 251.7 346.3 252.7 334C253.7 321.7 256.3 309.3 257.2 297C258 284.7 257 272.3 258 260C259 247.7 262 235.3 261.5 222.8C261 210.3 257 197.7 256.5 185.2C256 172.7 259 160.3 260 148C261 135.7 260 123.3 256.7 111C253.3 98.7 247.7 86.3 245.8 74C244 61.7 246 49.3 249.8 37C253.7 24.7 259.3 12.3 262.2 6.2L265 0L289 0L289 6.2C289 12.3 289 24.7 289 37C289 49.3 289 61.7 289 74C289 86.3 289 98.7 289 111C289 123.3 289 135.7 289 148C289 160.3 289 172.7 289 185.2C289 197.7 289 210.3 289 222.8C289 235.3 289 247.7 289 260C289 272.3 289 284.7 289 297C289 309.3 289 321.7 289 334C289 346.3 289 358.7 289 371C289 383.3 289 395.7 289 401.8L289 408Z" fill="#0f172a"></path><path d="M138 408L148.5 401.8C159 395.7 180 383.3 181 371C182 358.7 163 346.3 158.7 334C154.3 321.7 164.7 309.3 173.3 297C182 284.7 189 272.3 190 260C191 247.7 186 235.3 182.5 222.8C179 210.3 177 197.7 177.5 185.2C178 172.7 181 160.3 182.5 148C184 135.7 184 123.3 183 111C182 98.7 180 86.3 173.3 74C166.7 61.7 155.3 49.3 156.8 37C158.3 24.7 172.7 12.3 179.8 6.2L187 0L266 0L263.2 6.2C260.3 12.3 254.7 24.7 250.8 37C247 49.3 245 61.7 246.8 74C248.7 86.3 254.3 98.7 257.7 111C261 123.3 262 135.7 261 148C260 160.3 257 172.7 257.5 185.2C258 197.7 262 210.3 262.5 222.8C263 235.3 260 247.7 259 260C258 272.3 259 284.7 258.2 297C257.3 309.3 254.7 321.7 253.7 334C252.7 346.3 253.3 358.7 256.7 371C260 383.3 266 395.7 269 401.8L272 408Z" fill="#0d224a"></path><path d="M109 408L117.2 401.8C125.3 395.7 141.7 383.3 136.8 371C132 358.7 106 346.3 102.2 334C98.3 321.7 116.7 309.3 126.3 297C136 284.7 137 272.3 137 260C137 247.7 136 235.3 130.7 222.8C125.3 210.3 115.7 197.7 118.5 185.2C121.3 172.7 136.7 160.3 137.2 148C137.7 135.7 123.3 123.3 122.8 111C122.3 98.7 135.7 86.3 132.3 74C129 61.7 109 49.3 109 37C109 24.7 129 12.3 139 6.2L149 0L188 0L180.8 6.2C173.7 12.3 159.3 24.7 157.8 37C156.3 49.3 167.7 61.7 174.3 74C181 86.3 183 98.7 184 111C185 123.3 185 135.7 183.5 148C182 160.3 179 172.7 178.5 185.2C178 197.7 180 210.3 183.5 222.8C187 235.3 192 247.7 191 260C190 272.3 183 284.7 174.3 297C165.7 309.3 155.3 321.7 159.7 334C164 346.3 183 358.7 182 371C181 383.3 160 395.7 149.5 401.8L139 408Z" fill="#082d6b"></path><path d="M83 408L85.3 401.8C87.7 395.7 92.3 383.3 86 371C79.7 358.7 62.3 346.3 60 334C57.7 321.7 70.3 309.3 76.7 297C83 284.7 83 272.3 81.5 260C80 247.7 77 235.3 73.2 222.8C69.3 210.3 64.7 197.7 72.3 185.2C80 172.7 100 160.3 101.8 148C103.7 135.7 87.3 123.3 83.5 111C79.7 98.7 88.3 86.3 87.5 74C86.7 61.7 76.3 49.3 78.3 37C80.3 24.7 94.7 12.3 101.8 6.2L109 0L150 0L140 6.2C130 12.3 110 24.7 110 37C110 49.3 130 61.7 133.3 74C136.7 86.3 123.3 98.7 123.8 111C124.3 123.3 138.7 135.7 138.2 148C137.7 160.3 122.3 172.7 119.5 185.2C116.7 197.7 126.3 210.3 131.7 222.8C137 235.3 138 247.7 138 260C138 272.3 137 284.7 127.3 297C117.7 309.3 99.3 321.7 103.2 334C107 346.3 133 358.7 137.8 371C142.7 383.3 126.3 395.7 118.2 401.8L110 408Z" fill="#0b378d"></path><path d="M0 408L0 401.8C0 395.7 0 383.3 0 371C0 358.7 0 346.3 0 334C0 321.7 0 309.3 0 297C0 284.7 0 272.3 0 260C0 247.7 0 235.3 0 222.8C0 210.3 0 197.7 0 185.2C0 172.7 0 160.3 0 148C0 135.7 0 123.3 0 111C0 98.7 0 86.3 0 74C0 61.7 0 49.3 0 37C0 24.7 0 12.3 0 6.2L0 0L110 0L102.8 6.2C95.7 12.3 81.3 24.7 79.3 37C77.3 49.3 87.7 61.7 88.5 74C89.3 86.3 80.7 98.7 84.5 111C88.3 123.3 104.7 135.7 102.8 148C101 160.3 81 172.7 73.3 185.2C65.7 197.7 70.3 210.3 74.2 222.8C78 235.3 81 247.7 82.5 260C84 272.3 84 284.7 77.7 297C71.3 309.3 58.7 321.7 61 334C63.3 346.3 80.7 358.7 87 371C93.3 383.3 88.7 395.7 86.3 401.8L84 408Z" fill="#1e40af"></path></svg>